<svg xmlns="http://www.w3.org/2000/svg" width="178" height="144" viewBox="0 0 178 144">
  <g id="folder" transform="translate(2 2)">
    <path id="Caminho_13" data-name="Caminho 13" d="M164.571,23.471H79.933l-4.64-9.512A12.436,12.436,0,0,0,64.107,7H15.429A12.391,12.391,0,0,0,3,19.353V134.647A12.391,12.391,0,0,0,15.429,147H164.571A12.391,12.391,0,0,0,177,134.647V35.824a12.391,12.391,0,0,0-12.429-12.353Zm0,8.235a4.13,4.13,0,0,1,4.143,4.118v4.118H90.58a4.145,4.145,0,0,1-3.729-2.306l-2.9-5.929Zm4.143,102.941a4.13,4.13,0,0,1-4.143,4.118H15.429a4.13,4.13,0,0,1-4.143-4.118V19.353a4.13,4.13,0,0,1,4.143-4.118H64.107a4.145,4.145,0,0,1,3.729,2.306L79.394,41.218A12.436,12.436,0,0,0,90.58,48.176h78.134Z" transform="translate(-3 -7)" fill="#008ff4" stroke="#fff" stroke-width="4"/>
  </g>
</svg>
