<svg xmlns="http://www.w3.org/2000/svg" xmlns:xlink="http://www.w3.org/1999/xlink" width="302.993" height="800" viewBox="0 0 302.993 800">
  <defs>
    <linearGradient id="linear-gradient" y1="0.5" x2="1" y2="0.5" gradientUnits="objectBoundingBox">
      <stop offset="0" stop-color="#fff" stop-opacity="0"/>
      <stop offset="1" stop-color="#fff"/>
    </linearGradient>
    <clipPath id="clip-path">
      <path id="Caminho_12" data-name="Caminho 12" d="M108.491,791.712h4.8l.389-.642v-7.734Zm-24.04,0h5.163l24.067-35.945v-6.838Zm-25.395,0h5.406l49.219-66.867v-5.927Zm-27.173,0H37.6l76.084-94.259V692.24Zm-29.27,0H8.756L113.682,672.956v-4.682Zm-31.752,0h6.784L113.682,650.871v-4.324Zm-34.6,0h7.421l170-161.018v-3.96Zm-37.981,0h8.2L113.682,612.2v-3.66Zm-42.552,0h9.465L113.682,595.05v-3.524Zm-45.04-1.514v1.514h8.183l294.81-212.685v-3.193Zm0-34.368v6.929L113.682,564.028v-2.983Zm0-32.557v6.639L113.682,549.891v-2.857Zm0-30.822v6.184l302.993-162.2v-2.659Zm0-29.751v6.211l302.993-145.27v-2.674Zm0-28.1v5.663L113.682,511.312v-2.435Zm0-27.462v5.7L113.682,499.513V497.06Zm0-26.408v5.359L113.682,488v-2.307Zm0-25.782v5.322L113.682,476.89V474.6Zm0-25.255v5.284l302.993-68.973v-2.272Zm0-24.575v5.06l302.993-54.845v-2.178Zm0-24.217v4.957l302.993-40.991v-2.133Zm0-23.907v4.9l302.993-27.336v-2.106Zm0-23.8v4.952l302.993-13.811v-2.131Zm0-18.9,302.993-.224v-2.289l-302.993-2.808Zm0-24,302.993,13.449v-2.088l-302.993-16.21Zm0-23.716,302.993,26.958v-2.111l-302.993-29.751Zm0-23.951,302.993,40.6V381.1l-302.993-43.435Zm0-24.3,302.993,54.445v-2.191l-302.993-57.34Zm0-24.781,302.993,68.562v-2.184l-302.993-71.449Zm0-25.264,302.993,82.952v-2.249l-302.993-85.935Zm0-25.832,302.993,97.669V337.74L-189.311,236.909Zm0-26.76L113.682,328.613V326.2L-189.311,210.081Zm0-27.616L113.682,316.729v-2.522L-189.311,182.221Zm0-28.758L113.682,304.353v-2.574l-302.993-148.44Zm0-29.859L113.682,291.5v-2.728l-302.993-165.65Zm0-31.274L113.682,278.046v-2.931L-189.311,91.382Zm0-32.995L113.682,263.848v-3.038L-189.311,58.134Zm0-35.034,302.993,218.61V245.62L-189.311,22.834Zm0-38.451v1.2L113.682,232.742v-3.426L-180.926-8.288Zm44.649,0L113.682,215.577V211.95L-135.911-8.288Zm41.546,0,216.8,205.374v-4.1L-94.848-8.288Zm38,0L113.682,176.877v-4.371L-57.732-8.288Zm34.824,0L113.682,154.737v-4.78L-23.536-8.288Zm32.083,0L113.682,130.337V124.9L8.206-8.288Zm29.966,0L113.682,103V97.008L37.632-8.288Zm28.018,0,53.9,80.479V65.233L65.422-8.288Zm26.457,0L113.682,36.92V28.944L91.545-8.288Zm25.024,0,2.424,4.423V-8.288Z" transform="translate(189.311 8.288)" fill="url(#linear-gradient)"/>
    </clipPath>
  </defs>
  <g id="Grupo_49" data-name="Grupo 49" transform="translate(189.311 8.288)" opacity="0.15" style="mix-blend-mode: normal;isolation: isolate">
    <path id="Caminho_11" data-name="Caminho 11" d="M108.491,791.712h4.8l.389-.642v-7.734Zm-24.04,0h5.163l24.067-35.945v-6.838Zm-25.395,0h5.406l49.219-66.867v-5.927Zm-27.173,0H37.6l76.084-94.259V692.24Zm-29.27,0H8.756L113.682,672.956v-4.682Zm-31.752,0h6.784L113.682,650.871v-4.324Zm-34.6,0h7.421l170-161.018v-3.96Zm-37.981,0h8.2L113.682,612.2v-3.66Zm-42.552,0h9.465L113.682,595.05v-3.524Zm-45.04-1.514v1.514h8.183l294.81-212.685v-3.193Zm0-34.368v6.929L113.682,564.028v-2.983Zm0-32.557v6.639L113.682,549.891v-2.857Zm0-30.822v6.184l302.993-162.2v-2.659Zm0-29.751v6.211l302.993-145.27v-2.674Zm0-28.1v5.663L113.682,511.312v-2.435Zm0-27.462v5.7L113.682,499.513V497.06Zm0-26.408v5.359L113.682,488v-2.307Zm0-25.782v5.322L113.682,476.89V474.6Zm0-25.255v5.284l302.993-68.973v-2.272Zm0-24.575v5.06l302.993-54.845v-2.178Zm0-24.217v4.957l302.993-40.991v-2.133Zm0-23.907v4.9l302.993-27.336v-2.106Zm0-23.8v4.952l302.993-13.811v-2.131Zm0-18.9,302.993-.224v-2.289l-302.993-2.808Zm0-24,302.993,13.449v-2.088l-302.993-16.21Zm0-23.716,302.993,26.958v-2.111l-302.993-29.751Zm0-23.951,302.993,40.6V381.1l-302.993-43.435Zm0-24.3,302.993,54.445v-2.191l-302.993-57.34Zm0-24.781,302.993,68.562v-2.184l-302.993-71.449Zm0-25.264,302.993,82.952v-2.249l-302.993-85.935Zm0-25.832,302.993,97.669V337.74L-189.311,236.909Zm0-26.76L113.682,328.613V326.2L-189.311,210.081Zm0-27.616L113.682,316.729v-2.522L-189.311,182.221Zm0-28.758L113.682,304.353v-2.574l-302.993-148.44Zm0-29.859L113.682,291.5v-2.728l-302.993-165.65Zm0-31.274L113.682,278.046v-2.931L-189.311,91.382Zm0-32.995L113.682,263.848v-3.038L-189.311,58.134Zm0-35.034,302.993,218.61V245.62L-189.311,22.834Zm0-38.451v1.2L113.682,232.742v-3.426L-180.926-8.288Zm44.649,0L113.682,215.577V211.95L-135.911-8.288Zm41.546,0,216.8,205.374v-4.1L-94.848-8.288Zm38,0L113.682,176.877v-4.371L-57.732-8.288Zm34.824,0L113.682,154.737v-4.78L-23.536-8.288Zm32.083,0L113.682,130.337V124.9L8.206-8.288Zm29.966,0L113.682,103V97.008L37.632-8.288Zm28.018,0,53.9,80.479V65.233L65.422-8.288Zm26.457,0L113.682,36.92V28.944L91.545-8.288Zm25.024,0,2.424,4.423V-8.288Z" transform="translate(0)" fill="url(#linear-gradient)"/>
    <g id="Grupo_48" data-name="Grupo 48" transform="translate(-189.311 -8.288)" clip-path="url(#clip-path)">
      <rect id="Retângulo_170" data-name="Retângulo 170" width="302.993" height="800" transform="translate(-0.001 -0.001)" fill="url(#linear-gradient)"/>
    </g>
  </g>
</svg>
